# xmcd CD database file
#
# Track frame offsets:
#	150
#	114440
#	152032
#
# Disc length: 2944 seconds
#
# Revision: 0
# Processed by: cddbd v1.5.1PL0 Copyright (c) Steve Scherf et al.
# Submitted via: CDex 1.51
#
DISCID=1a0b7e03
DTITLE=Our Man In Jazz - Sonny Rollins
DYEAR=1962
DGENRE=Jazz
TTITLE0=Oleo
TTITLE1=Dearly Beloved
TTITLE2=Doxy
EXTD=YEAR: 1962
EXTT0=
EXTT1=
EXTT2=
PLAYORDER=
